<svg width="31" height="29" viewBox="0 0 31 29" fill="none" xmlns="http://www.w3.org/2000/svg">
<path d="M21.9011 0.517334C26.4897 0.517334 30.2084 4.29643 30.2084 9.58717C30.2084 20.1687 18.8802 26.2152 15.1042 28.4827C12.1166 26.6884 4.40438 22.5314 1.31104 15.6337H8.40699L9.81772 13.2816L14.349 20.8398L17.4695 15.6337H22.6563V12.6105H15.7597L14.349 14.9626L9.81772 7.40437L6.6972 12.6105H0.317188C0.111771 11.6475 0 10.6393 0 9.58717C0 4.29643 3.77605 0.517334 8.3073 0.517334C11.1167 0.517334 13.5938 2.02897 15.1042 3.54061C16.6146 2.02897 19.0917 0.517334 21.9011 0.517334Z" fill="#067A9E"/>
</svg>
